<svg xmlns="http://www.w3.org/2000/svg"  viewBox="0 0 48 48" width="48px" height="48px"><path d="M 31.650391 1 A 1.0001 1.0001 0 0 0 31.560547 1.0019531 C 29.012272 1.1751169 26.330059 2.6654118 24.646484 4.703125 A 1.0001 1.0001 0 0 0 24.644531 4.7050781 C 24.051207 5.4272552 23.501797 6.281032 23.080078 7.2285156 A 1.0006717 1.0006717 0 1 0 24.908203 8.0429688 C 25.248108 7.2792972 25.703468 6.5660095 26.1875 5.9765625 L 26.189453 5.9746094 C 27.222593 4.7252373 28.930479 3.8232036 30.511719 3.3789062 C 30.410368 5.0715382 29.826469 6.7386155 28.859375 7.9804688 C 27.648998 9.5377584 25.478141 10.769497 23.554688 10.765625 C 22.719369 10.624784 21.882292 10.326429 20.933594 9.9882812 C 19.625559 9.5220536 18.113707 9.0058594 16.248047 9.0058594 C 12.538951 9.0058594 8.7541365 11.217532 6.3652344 14.896484 C 2.8815242 20.251179 3.5817537 29.628807 8.8457031 37.648438 A 1.0001 1.0001 0 0 0 8.8476562 37.648438 C 9.7746368 39.05547 10.870454 40.587224 12.208984 41.8125 C 13.547515 43.037776 15.181246 43.982533 17.091797 44 C 18.718958 44.0162 19.84547 43.469399 20.851562 43.025391 C 21.85811 42.581182 22.799252 42.19426 24.554688 42.185547 A 1.0001 1.0001 0 0 0 24.558594 42.185547 C 26.309784 42.171367 27.218865 42.551882 28.203125 42.998047 C 29.187385 43.444212 30.304115 44.007442 31.935547 43.994141 C 33.880992 43.978711 35.537844 42.932454 36.902344 41.625 C 38.267306 40.317103 39.39413 38.705261 40.316406 37.300781 C 41.638973 35.285393 42.171431 34.185289 43.1875 31.9375 A 1.0001 1.0001 0 0 0 42.630859 30.589844 C 39.325805 29.338979 37.435675 26.403298 37.162109 23.3125 C 36.888544 20.221702 38.206059 17.052175 41.501953 15.246094 A 1.0001 1.0001 0 0 0 41.800781 13.744141 C 39.410569 10.770073 36.048535 9 32.742188 9 C 31.869321 9 31.111144 9.1022934 30.410156 9.2402344 C 30.418614 9.2294537 30.4291 9.2197926 30.4375 9.2089844 C 31.901035 7.3296474 33.036465 4.6773412 32.617188 1.8535156 A 1.0001 1.0001 0 0 0 31.650391 1 z M 32.742188 11 C 35.030434 11 37.466456 12.287091 39.439453 14.328125 C 36.317419 16.605375 34.870041 20.100173 35.169922 23.488281 C 35.475405 26.939687 37.540813 30.186303 40.939453 31.912109 C 40.21071 33.494272 39.721604 34.561831 38.644531 36.203125 C 37.749808 37.565645 36.684069 39.063834 35.519531 40.179688 C 34.354993 41.295539 33.144622 41.984871 31.919922 41.994141 A 1.0001 1.0001 0 0 0 31.917969 41.994141 C 30.728401 42.003841 30.071287 41.648116 29.029297 41.175781 C 27.988069 40.703792 26.619177 40.169548 24.544922 40.185547 L 24.541016 40.185547 C 22.470986 40.196597 21.099603 40.729861 20.044922 41.195312 C 18.98951 41.661105 18.305026 42.012278 17.109375 42 C 15.847926 41.988467 14.681313 41.363661 13.558594 40.335938 C 12.436227 39.308535 11.409403 37.904356 10.517578 36.550781 L 10.517578 36.548828 C 5.6124789 29.074836 5.2389166 20.295294 8.0410156 15.988281 A 1.0001 1.0001 0 0 0 8.0410156 15.986328 C 10.100114 12.81528 13.351142 11.005859 16.248047 11.005859 C 17.747387 11.005859 18.976004 11.412821 20.261719 11.871094 C 21.104132 12.171358 21.982235 12.484918 22.935547 12.675781 A 1.0001 1.0001 0 0 0 23.355469 12.769531 C 23.36989 12.769999 23.384023 12.767199 23.398438 12.767578 C 23.75608 12.819274 24.124888 12.853516 24.509766 12.853516 C 26.088239 12.853516 27.32128 12.317479 28.53125 11.863281 C 29.74122 11.40913 30.955516 11 32.742188 11 z"/></svg>